<svg width="271" height="263" viewBox="0 0 271 263" fill="none" xmlns="http://www.w3.org/2000/svg">
<g filter="url(#filter0_dd_121_477)">
<path d="M141.741 126.221V121.547C143.253 120.906 144.8 120.424 146.382 120.104C147.961 119.783 149.622 119.623 151.363 119.623C152.555 119.623 153.723 119.714 154.869 119.897C156.014 120.081 157.137 120.31 158.236 120.585V124.984C157.137 124.571 156.026 124.262 154.904 124.057C153.781 123.85 152.6 123.746 151.363 123.746C149.622 123.746 147.95 123.965 146.346 124.401C144.742 124.835 143.207 125.442 141.741 126.221ZM141.741 141.342V136.668C143.253 136.027 144.8 135.545 146.382 135.225C147.961 134.904 149.622 134.744 151.363 134.744C152.555 134.744 153.723 134.835 154.869 135.019C156.014 135.202 157.137 135.431 158.236 135.706V140.105C157.137 139.692 156.026 139.383 154.904 139.178C153.781 138.971 152.6 138.868 151.363 138.868C149.622 138.868 147.95 139.074 146.346 139.486C144.742 139.898 143.207 140.517 141.741 141.342ZM141.741 133.781V129.108C143.253 128.466 144.8 127.985 146.382 127.664C147.961 127.343 149.622 127.183 151.363 127.183C152.555 127.183 153.723 127.275 154.869 127.458C156.014 127.641 157.137 127.87 158.236 128.145V132.544C157.137 132.132 156.026 131.823 154.904 131.618C153.781 131.411 152.6 131.307 151.363 131.307C149.622 131.307 147.95 131.525 146.346 131.961C144.742 132.396 143.207 133.002 141.741 133.781ZM121.121 142.991C123.275 142.991 125.371 143.232 127.411 143.712C129.45 144.194 131.477 144.916 133.493 145.878V118.798C131.614 117.698 129.621 116.873 127.513 116.323C125.405 115.774 123.275 115.499 121.121 115.499C119.472 115.499 117.834 115.659 116.208 115.98C114.581 116.3 113.011 116.782 111.499 117.423V144.641C113.102 144.091 114.695 143.679 116.277 143.404C117.857 143.129 119.472 142.991 121.121 142.991ZM138.991 145.878C141.008 144.916 143.036 144.194 145.076 143.712C147.114 143.232 149.21 142.991 151.363 142.991C153.013 142.991 154.628 143.129 156.21 143.404C157.79 143.679 159.382 144.091 160.986 144.641V117.423C159.474 116.782 157.905 116.3 156.279 115.98C154.651 115.659 153.013 115.499 151.363 115.499C149.21 115.499 147.079 115.774 144.971 116.323C142.863 116.873 140.87 117.698 138.991 118.798V145.878ZM136.242 153.989C134.043 152.247 131.66 150.896 129.094 149.933C126.528 148.971 123.87 148.49 121.121 148.49C119.197 148.49 117.307 148.742 115.452 149.246C113.595 149.75 111.819 150.46 110.124 151.377C109.162 151.881 108.234 151.858 107.342 151.308C106.447 150.758 106 149.956 106 148.902V115.774C106 115.269 106.126 114.788 106.379 114.33C106.631 113.872 107.008 113.528 107.512 113.299C109.62 112.199 111.819 111.375 114.11 110.825C116.401 110.275 118.738 110 121.121 110C123.779 110 126.38 110.344 128.924 111.031C131.466 111.718 133.905 112.749 136.242 114.124C138.579 112.749 141.02 111.718 143.564 111.031C146.106 110.344 148.706 110 151.363 110C153.746 110 156.083 110.275 158.374 110.825C160.665 111.375 162.864 112.199 164.972 113.299C165.476 113.528 165.855 113.872 166.108 114.33C166.359 114.788 166.484 115.269 166.484 115.774V148.902C166.484 149.956 166.038 150.758 165.145 151.308C164.251 151.858 163.323 151.881 162.36 151.377C160.665 150.46 158.889 149.75 157.032 149.246C155.177 148.742 153.288 148.49 151.363 148.49C148.614 148.49 145.956 148.971 143.39 149.933C140.824 150.896 138.442 152.247 136.242 153.989Z" fill="#FAFF00"/>
</g>
<path d="M136.034 182.959L90.2942 156.551L90.2773 103.767L135.998 77.3896L181.738 103.797L181.755 156.582L136.034 182.959Z" stroke="#FAFF00" stroke-width="3.65631"/>
<g filter="url(#filter1_ddd_121_477)">
<path d="M136.025 198.474L76.8264 164.296L76.8045 95.9794L135.979 61.8404L195.178 96.0189L195.2 164.335L136.025 198.474Z" stroke="#FAFF00" stroke-width="4.7322" shape-rendering="crispEdges"/>
</g>
<g filter="url(#filter2_d_121_477)">
<path d="M135.912 232.29L47.2763 181.116L47.2435 78.8268L135.845 27.7107L224.481 78.8845L224.513 181.174L135.912 232.29Z" stroke="#FAFF00" stroke-width="2.77406" shape-rendering="crispEdges"/>
</g>
<g filter="url(#filter3_dd_121_477)">
<path d="M47.8398 98.403V78.7864L135.619 27.6646L224.191 78.7864V98.403" stroke="#FAFF00" stroke-width="7.13329"/>
</g>
<g filter="url(#filter4_dd_121_477)">
<path d="M224.389 163.395V183.011L136.61 234.133L48.038 183.011V163.395" stroke="#FAFF00" stroke-width="7.13329"/>
</g>
<defs>
<filter id="filter0_dd_121_477" x="80.8479" y="88.8722" width="110.789" height="94.2931" filterUnits="userSpaceOnUse" color-interpolation-filters="sRGB">
<feFlood flood-opacity="0" result="BackgroundImageFix"/>
<feColorMatrix in="SourceAlpha" type="matrix" values="0 0 0 0 0 0 0 0 0 0 0 0 0 0 0 0 0 0 127 0" result="hardAlpha"/>
<feOffset dy="4.02434"/>
<feGaussianBlur stdDeviation="12.5761"/>
<feComposite in2="hardAlpha" operator="out"/>
<feColorMatrix type="matrix" values="0 0 0 0 0.980392 0 0 0 0 1 0 0 0 0 0 0 0 0 1 0"/>
<feBlend mode="normal" in2="BackgroundImageFix" result="effect1_dropShadow_121_477"/>
<feColorMatrix in="SourceAlpha" type="matrix" values="0 0 0 0 0 0 0 0 0 0 0 0 0 0 0 0 0 0 127 0" result="hardAlpha"/>
<feOffset dy="4.02434"/>
<feGaussianBlur stdDeviation="12.5761"/>
<feComposite in2="hardAlpha" operator="out"/>
<feColorMatrix type="matrix" values="0 0 0 0 0.980392 0 0 0 0 1 0 0 0 0 0 0 0 0 1 0"/>
<feBlend mode="normal" in2="effect1_dropShadow_121_477" result="effect2_dropShadow_121_477"/>
<feBlend mode="normal" in="SourceGraphic" in2="effect2_dropShadow_121_477" result="shape"/>
</filter>
<filter id="filter1_ddd_121_477" x="57.5368" y="44.9118" width="156.93" height="175.899" filterUnits="userSpaceOnUse" color-interpolation-filters="sRGB">
<feFlood flood-opacity="0" result="BackgroundImageFix"/>
<feColorMatrix in="SourceAlpha" type="matrix" values="0 0 0 0 0 0 0 0 0 0 0 0 0 0 0 0 0 0 127 0" result="hardAlpha"/>
<feOffset dy="2.70412"/>
<feGaussianBlur stdDeviation="8.45036"/>
<feComposite in2="hardAlpha" operator="out"/>
<feColorMatrix type="matrix" values="0 0 0 0 0.980392 0 0 0 0 1 0 0 0 0 0 0 0 0 1 0"/>
<feBlend mode="normal" in2="BackgroundImageFix" result="effect1_dropShadow_121_477"/>
<feColorMatrix in="SourceAlpha" type="matrix" values="0 0 0 0 0 0 0 0 0 0 0 0 0 0 0 0 0 0 127 0" result="hardAlpha"/>
<feOffset dy="2.70412"/>
<feGaussianBlur stdDeviation="8.45036"/>
<feComposite in2="hardAlpha" operator="out"/>
<feColorMatrix type="matrix" values="0 0 0 0 0.980392 0 0 0 0 1 0 0 0 0 0 0 0 0 1 0"/>
<feBlend mode="normal" in2="effect1_dropShadow_121_477" result="effect2_dropShadow_121_477"/>
<feColorMatrix in="SourceAlpha" type="matrix" values="0 0 0 0 0 0 0 0 0 0 0 0 0 0 0 0 0 0 127 0" result="hardAlpha"/>
<feOffset dy="2.70412"/>
<feGaussianBlur stdDeviation="8.45036"/>
<feComposite in2="hardAlpha" operator="out"/>
<feColorMatrix type="matrix" values="0 0 0 0 0.980392 0 0 0 0 1 0 0 0 0 0 0 0 0 1 0"/>
<feBlend mode="normal" in2="effect2_dropShadow_121_477" result="effect3_dropShadow_121_477"/>
<feBlend mode="normal" in="SourceGraphic" in2="effect3_dropShadow_121_477" result="shape"/>
</filter>
<filter id="filter2_d_121_477" x="21.1424" y="5.35039" width="229.471" height="257.208" filterUnits="userSpaceOnUse" color-interpolation-filters="sRGB">
<feFlood flood-opacity="0" result="BackgroundImageFix"/>
<feColorMatrix in="SourceAlpha" type="matrix" values="0 0 0 0 0 0 0 0 0 0 0 0 0 0 0 0 0 0 127 0" result="hardAlpha"/>
<feOffset dy="3.95409"/>
<feGaussianBlur stdDeviation="12.3565"/>
<feComposite in2="hardAlpha" operator="out"/>
<feColorMatrix type="matrix" values="0 0 0 0 0.980392 0 0 0 0 1 0 0 0 0 0 0 0 0 1 0"/>
<feBlend mode="normal" in2="BackgroundImageFix" result="effect1_dropShadow_121_477"/>
<feBlend mode="normal" in="SourceGraphic" in2="effect1_dropShadow_121_477" result="shape"/>
</filter>
<filter id="filter3_dd_121_477" x="34.3661" y="15.2198" width="203.299" height="94.6755" filterUnits="userSpaceOnUse" color-interpolation-filters="sRGB">
<feFlood flood-opacity="0" result="BackgroundImageFix"/>
<feColorMatrix in="SourceAlpha" type="matrix" values="0 0 0 0 0 0 0 0 0 0 0 0 0 0 0 0 0 0 127 0" result="hardAlpha"/>
<feOffset dy="1.58517"/>
<feGaussianBlur stdDeviation="4.95367"/>
<feComposite in2="hardAlpha" operator="out"/>
<feColorMatrix type="matrix" values="0 0 0 0 0.980392 0 0 0 0 1 0 0 0 0 0 0 0 0 1 0"/>
<feBlend mode="normal" in2="BackgroundImageFix" result="effect1_dropShadow_121_477"/>
<feColorMatrix in="SourceAlpha" type="matrix" values="0 0 0 0 0 0 0 0 0 0 0 0 0 0 0 0 0 0 127 0" result="hardAlpha"/>
<feOffset dy="1.58517"/>
<feGaussianBlur stdDeviation="4.95367"/>
<feComposite in2="hardAlpha" operator="out"/>
<feColorMatrix type="matrix" values="0 0 0 0 0.980392 0 0 0 0 1 0 0 0 0 0 0 0 0 1 0"/>
<feBlend mode="normal" in2="effect1_dropShadow_121_477" result="effect2_dropShadow_121_477"/>
<feBlend mode="normal" in="SourceGraphic" in2="effect2_dropShadow_121_477" result="shape"/>
</filter>
<filter id="filter4_dd_121_477" x="34.5634" y="155.073" width="203.299" height="94.6755" filterUnits="userSpaceOnUse" color-interpolation-filters="sRGB">
<feFlood flood-opacity="0" result="BackgroundImageFix"/>
<feColorMatrix in="SourceAlpha" type="matrix" values="0 0 0 0 0 0 0 0 0 0 0 0 0 0 0 0 0 0 127 0" result="hardAlpha"/>
<feOffset dy="1.58517"/>
<feGaussianBlur stdDeviation="4.95367"/>
<feComposite in2="hardAlpha" operator="out"/>
<feColorMatrix type="matrix" values="0 0 0 0 0.980392 0 0 0 0 1 0 0 0 0 0 0 0 0 1 0"/>
<feBlend mode="normal" in2="BackgroundImageFix" result="effect1_dropShadow_121_477"/>
<feColorMatrix in="SourceAlpha" type="matrix" values="0 0 0 0 0 0 0 0 0 0 0 0 0 0 0 0 0 0 127 0" result="hardAlpha"/>
<feOffset dy="1.58517"/>
<feGaussianBlur stdDeviation="4.95367"/>
<feComposite in2="hardAlpha" operator="out"/>
<feColorMatrix type="matrix" values="0 0 0 0 0.980392 0 0 0 0 1 0 0 0 0 0 0 0 0 1 0"/>
<feBlend mode="normal" in2="effect1_dropShadow_121_477" result="effect2_dropShadow_121_477"/>
<feBlend mode="normal" in="SourceGraphic" in2="effect2_dropShadow_121_477" result="shape"/>
</filter>
</defs>
</svg>
